HIERARCHY
ROOT hips
{
  OFFSET 4.514983404067499e-9 10.105397940993303 1.318478203070619
  CHANNELS 6 Xposition Yposition Zposition Yrotation Xrotation Zrotation
  JOINT spine
  {
    OFFSET -3.891297943093837e-9 0.5743022203102706 0
    CHANNELS 3 Yrotation Xrotation Zrotation
    JOINT chest
    {
      OFFSET 0 1.2550312016247926 0
      CHANNELS 3 Yrotation Xrotation Zrotation
      JOINT upperChest
      {
        OFFSET 0 1.2059856050120283 0
        CHANNELS 3 Yrotation Xrotation Zrotation
        JOINT neck
        {
          OFFSET 0 1.5290392449770056 0
          CHANNELS 3 Yrotation Xrotation Zrotation
          JOINT head
          {
            OFFSET 0 0.8186276690878121 0
            CHANNELS 3 Yrotation Xrotation Zrotation
            JOINT leftEye
            {
              OFFSET 0.4540883942785781 -0.2684596961258452 0.6133497327236779
              CHANNELS 3 Yrotation Xrotation Zrotation
              End Site
              {
                OFFSET 0.4540883942785781 -0.2684596961258452 0.6133497327236779
              }
            }
            JOINT rightEye
            {
              OFFSET -0.4540889229417456 -0.26846010916843954 0.6133525398671689
              CHANNELS 3 Yrotation Xrotation Zrotation
              End Site
              {
                OFFSET -0.4540889229417456 -0.26846010916843954 0.6133525398671689
              }
            }
          }
        }
        JOINT leftShoulder
        {
          OFFSET 1.1700010731725468 -0.4176065950681176 0
          CHANNELS 3 Yrotation Xrotation Zrotation
          JOINT leftUpperArm
          {
            OFFSET 1.1803911524554955 0 0
            CHANNELS 3 Yrotation Xrotation Zrotation
            JOINT leftLowerArm
            {
              OFFSET 2.4406171707858904 0 0
              CHANNELS 3 Yrotation Xrotation Zrotation
              JOINT leftHand
              {
                OFFSET 2.3832177068873874 0 0
                CHANNELS 3 Yrotation Xrotation Zrotation
                JOINT leftIndexProximal
                {
                  OFFSET 0.7310175006235151 0.08192774217833776 0.20404791572985242
                  CHANNELS 3 Yrotation Xrotation Zrotation
                  JOINT leftIndexIntermediate
                  {
                    OFFSET 0.3688845439429529 -0.010662034455094949 -0.014226011560394963
                    CHANNELS 3 Yrotation Xrotation Zrotation
                    JOINT leftIndexDistal
                    {
                      OFFSET 0.2271119941018298 -0.007897656478952575 -0.007580683836364496
                      CHANNELS 3 Yrotation Xrotation Zrotation
                      End Site
                      {
                        OFFSET 0.2271119941018298 -0.007897656478952575 -0.007580683836364496
                      }
                    }
                  }
                }
                JOINT leftLittleProximal
                {
                  OFFSET 0.678269929308182 0.08192620621401336 -0.323876516389586
                  CHANNELS 3 Yrotation Xrotation Zrotation
                  JOINT leftLittleIntermediate
                  {
                    OFFSET 0.34904545821382604 -0.0000017106393073174075 8.629360392919949e-9
                    CHANNELS 3 Yrotation Xrotation Zrotation
                    JOINT leftLittleDistal
                    {
                      OFFSET 0.2011060672849896 0.0031247840072243793 0.0038660318003989197
                      CHANNELS 3 Yrotation Xrotation Zrotation
                      End Site
                      {
                        OFFSET 0.2011060672849896 0.0031247840072243793 0.0038660318003989197
                      }
                    }
                  }
                }
                JOINT leftMiddleProximal
                {
                  OFFSET 0.7368181082522638 0.0819260272939426 0.02272335773438093
                  CHANNELS 3 Yrotation Xrotation Zrotation
                  JOINT leftMiddleIntermediate
                  {
                    OFFSET 0.41136739116025356 -0.0000015892429323649537 5.27860346960507e-8
                    CHANNELS 3 Yrotation Xrotation Zrotation
                    JOINT leftMiddleDistal
                    {
                      OFFSET 0.25378150303820757 -0.0000015332469289752737 1.3442958385345705e-8
                      CHANNELS 3 Yrotation Xrotation Zrotation
                      End Site
                      {
                        OFFSET 0.25378150303820757 -0.0000015332469289752737 1.3442958385345705e-8
                      }
                    }
                  }
                }
                JOINT leftRingProximal
                {
                  OFFSET 0.7284256823094712 0.08192611199801392 -0.1508405069143483
                  CHANNELS 3 Yrotation Xrotation Zrotation
                  JOINT leftRingIntermediate
                  {
                    OFFSET 0.381593741461262 -0.0000016975471202052006 6.592486757883709e-8
                    CHANNELS 3 Yrotation Xrotation Zrotation
                    JOINT leftRingDistal
                    {
                      OFFSET 0.22014536669820362 -0.0027420652959939673 -0.005037497035641991
                      CHANNELS 3 Yrotation Xrotation Zrotation
                      End Site
                      {
                        OFFSET 0.22014536669820362 -0.0027420652959939673 -0.005037497035641991
                      }
                    }
                  }
                }
                JOINT leftThumbProximal
                {
                  OFFSET 0.10842212958334652 -0.16573713992498873 -0.07779936144556289
                  CHANNELS 3 Yrotation Xrotation Zrotation
                  JOINT leftThumbIntermediate
                  {
                    OFFSET 0.40720553822379024 -0.01751267955631075 0.31852684427382305
                    CHANNELS 3 Yrotation Xrotation Zrotation
                    JOINT leftThumbDistal
                    {
                      OFFSET 0.23412859218032667 -0.01859690713588802 0.2146635043319005
                      CHANNELS 3 Yrotation Xrotation Zrotation
                      End Site
                      {
                        OFFSET 0.23412859218032667 -0.01859690713588802 0.2146635043319005
                      }
                    }
                  }
                }
              }
            }
          }
        }
        JOINT rightShoulder
        {
          OFFSET -1.1700037144859516 -0.41760703856471126 0
          CHANNELS 3 Yrotation Xrotation Zrotation
          JOINT rightUpperArm
          {
            OFFSET -1.1803910289368023 0 0
            CHANNELS 3 Yrotation Xrotation Zrotation
            JOINT rightLowerArm
            {
              OFFSET -2.440617418222133 0 0
              CHANNELS 3 Yrotation Xrotation Zrotation
              JOINT rightHand
              {
                OFFSET -2.3832181162662343 0 0
                CHANNELS 3 Yrotation Xrotation Zrotation
                JOINT rightIndexProximal
                {
                  OFFSET -0.7310168852843362 0.08192787643494381 0.20404785424302163
                  CHANNELS 3 Yrotation Xrotation Zrotation
                  JOINT rightIndexIntermediate
                  {
                    OFFSET -0.3688846010723953 -0.01066191355993129 -0.014226020535245201
                    CHANNELS 3 Yrotation Xrotation Zrotation
                    JOINT rightIndexDistal
                    {
                      OFFSET -0.22711216276130997 -0.007898902439410271 -0.007580718044857868
                      CHANNELS 3 Yrotation Xrotation Zrotation
                      End Site
                      {
                        OFFSET -0.22711216276130997 -0.007898902439410271 -0.007580718044857868
                      }
                    }
                  }
                }
                JOINT rightLittleProximal
                {
                  OFFSET -0.6782685897119165 0.08192501740206293 -0.3238766118101876
                  CHANNELS 3 Yrotation Xrotation Zrotation
                  JOINT rightLittleIntermediate
                  {
                    OFFSET -0.34904682243945895 -2.664019085329983e-7 3.792712677253007e-8
                    CHANNELS 3 Yrotation Xrotation Zrotation
                    JOINT rightLittleDistal
                    {
                      OFFSET -0.20110609302945537 0.0031260842677420797 0.0038661724369087186
                      CHANNELS 3 Yrotation Xrotation Zrotation
                      End Site
                      {
                        OFFSET -0.20110609302945537 0.0031260842677420797 0.0038661724369087186
                      }
                    }
                  }
                }
                JOINT rightMiddleProximal
                {
                  OFFSET -0.7368168209984411 0.08192485183145659 0.022723294831187846
                  CHANNELS 3 Yrotation Xrotation Zrotation
                  JOINT rightMiddleIntermediate
                  {
                    OFFSET -0.4113687575187084 -9.03141548214137e-8 4.759541079313312e-8
                    CHANNELS 3 Yrotation Xrotation Zrotation
                    JOINT rightMiddleDistal
                    {
                      OFFSET -0.2537822083525749 -9.554208624251714e-8 -1.6364827826187422e-9
                      CHANNELS 3 Yrotation Xrotation Zrotation
                      End Site
                      {
                        OFFSET -0.2537822083525749 -9.554208624251714e-8 -1.6364827826187422e-9
                      }
                    }
                  }
                }
                JOINT rightRingProximal
                {
                  OFFSET -0.7284243957721679 0.08192492753028224 -0.15084062217729294
                  CHANNELS 3 Yrotation Xrotation Zrotation
                  JOINT rightRingIntermediate
                  {
                    OFFSET -0.381595106800805 -2.5662436442530634e-7 2.929475539925619e-8
                    CHANNELS 3 Yrotation Xrotation Zrotation
                    JOINT rightRingDistal
                    {
                      OFFSET -0.22014544912608125 -0.002738002524970362 -0.0050375115645966
                      CHANNELS 3 Yrotation Xrotation Zrotation
                      End Site
                      {
                        OFFSET -0.22014544912608125 -0.002738002524970362 -0.0050375115645966
                      }
                    }
                  }
                }
                JOINT rightThumbProximal
                {
                  OFFSET -0.10842026863657162 -0.16573778435706465 -0.07779917642461898
                  CHANNELS 3 Yrotation Xrotation Zrotation
                  JOINT rightThumbIntermediate
                  {
                    OFFSET -0.40720600760521597 -0.017512298079938038 0.3185267362029824
                    CHANNELS 3 Yrotation Xrotation Zrotation
                    JOINT rightThumbDistal
                    {
                      OFFSET -0.2341289751103648 -0.018594162598156494 0.21466399510514025
                      CHANNELS 3 Yrotation Xrotation Zrotation
                      End Site
                      {
                        OFFSET -0.2341289751103648 -0.018594162598156494 0.21466399510514025
                      }
                    }
                  }
                }
              }
            }
          }
        }
      }
    }
  }
  JOINT leftUpperLeg
  {
    OFFSET -0.8565189721517369 0.4427277044191169 0
    CHANNELS 3 Yrotation Xrotation Zrotation
    JOINT leftLowerLeg
    {
      OFFSET 0 -3.918486704769693 0
      CHANNELS 3 Yrotation Xrotation Zrotation
      JOINT leftFoot
      {
        OFFSET 6.174701361744139e-7 -0.055233446196002234 4.612027801972084
        CHANNELS 3 Yrotation Xrotation Zrotation
        JOINT leftToes
        {
          OFFSET -3.4372540951010944e-7 -0.705284859504459 1.2256624571888697
          CHANNELS 3 Yrotation Xrotation Zrotation
          End Site
          {
            OFFSET -3.4372540951010944e-7 -0.705284859504459 1.2256624571888697
          }
        }
      }
    }
  }
  JOINT rightUpperLeg
  {
    OFFSET 0.8565189732197466 0.44272769569168136 0
    CHANNELS 3 Yrotation Xrotation Zrotation
    JOINT rightLowerLeg
    {
      OFFSET 0 -3.918486692649319 0
      CHANNELS 3 Yrotation Xrotation Zrotation
      JOINT rightFoot
      {
        OFFSET 6.995136552362391e-7 -0.05523244834012664 4.612028499942008
        CHANNELS 3 Yrotation Xrotation Zrotation
        JOINT rightToes
        {
          OFFSET -4.2566694985479714e-7 -0.7052846587611067 1.22566236096697
          CHANNELS 3 Yrotation Xrotation Zrotation
          End Site
          {
            OFFSET -4.2566694985479714e-7 -0.7052846587611067 1.22566236096697
          }
        }
      }
    }
  }
}
MOTION
Frames: 4
Frame Time: 0.03333333333333333
-0.004710737615823746 -0.24362254273890827 0.07086948305368423 -2.057143863485755 -9.708804720758685 0.8993116482096336 2.0051302500073356 3.003886528641543 -0.24543099155747672 0.46381924921885115 3.078556018077737 -2.316385308129151 0 0 0 -1.2391956260668953 0.826312005976498 3.5255356030150056 -1.606189927247276 -2.9358071735005047 -1.4693508808685973 0 0 0 0 0 0 -9.139107527327353 0.7486976584015397 -6.326088884649862 -0.05136871276267774 -2.6904562964924463 -74.37852528580716 -9.096353024135505 0.009307015740434398 0.11702196592277289 -2.5477271362270337 6.455804342727714 -2.4444371713337896 -4.515280208325539 -1.669533842228318 -17.328972432844907 2.76569741946821 0.6549785538435349 -26.64441979891458 1.4896896443952825 0.18266619491270114 -13.981891311383732 5.471209039593435 2.268736424623915 -30.948757124150095 -2.1415147101765553 0.3061705563523106 -18.615288385890604 0.8611257240310438 0.06042031149338201 -8.029305401663558 -3.0167578868408236 -1.3688842322028947 -18.95145700781621 2.694545097975458 0.619872196643596 -25.907733234856856 1.569974893675775 0.20322233951395938 -14.751894869178244 -0.954166581336891 -1.0213306524742558 -24.340176338243907 2.137425606484925 0.38231267062669433 -20.281553148140077 1.40955051323925 0.1632814826696095 -13.215821889741667 17.269255709486668 -9.665658767073568 -17.19287045587832 11.954841795606555 7.234428912493603 17.008941585755625 19.941924516039514 -0.3944456331931307 3.7132843395478963 -1.9649729082902894 0.7920756829834396 14.307641308833837 18.534260982290196 1.1832264371336985 68.84938130394077 11.009146564929576 0.013619961791049198 -0.14131038876858618 1.3439932643795989 4.705670447082987 -3.08299627531337 -3.4038674847763892 0.9574295051129769 37.844754203335 -2.494118324013789 0.5207197130448739 23.581251047234307 -1.3131017213587928 0.1398793582448561 12.16147613984454 3.0955326187811463 -3.1843137924889904 33.25097406016159 -3.0381070967370323 0.7903764046800832 29.158723624000256 -1.1142367221741891 0.10041587841734655 10.297730875439058 -4.217111832360408 1.4569469247605695 30.189367247303657 -3.2388486124213838 0.9072962143135003 31.291347787593743 -1.8431957582605283 0.26391917601341963 17.158313637262875 -2.5881248560170054 0.5227472427099782 30.977776045130447 -2.6809681021065934 0.6059414421930679 25.46737882847518 -0.9344918694161369 0.101886585856222 8.666136520554796 -31.645560773005208 -6.504357449397878 11.020988884168942 -8.401533463333328 -1.844184971499659 -0.5568631136380153 -0.25182204680024217 -2.6392855289400825 -5.266603330256482 4.404247912696675 3.4810808062816556 2.9284906096525023 -1.7804362253120403 20.729204241319106 -0.8684208290073627 0.2838537156510466 -14.527082224431812 -2.495620145126001 -5.147004112147575e-7 -0.008648946349130297 6.648974608467598e-9 -6.675389177514278 0.3695417829162604 -5.625660454996081 -8.892153991354366 22.65349038280034 -4.46842854346752 -0.9957034368778679 -12.960826158368342 6.9021418143623725 -0.0000015900090545832671 -0.011819756668118504 0.000002582067518830904
-0.005190683528780937 -0.24371695649623248 0.07007865607738495 -2.064689345088893 -9.709723738410522 0.8952218856931 2.004762977576152 3.0145552676786 -0.24247732295560956 0.4638208932516052 3.0689434251708163 -2.322720690621063 0 0 0 -1.2354809975931214 0.8401862810646276 3.5250483876766077 -1.5960378966224316 -2.9359719546509755 -1.4462915896130646 0 0 0 0 0 0 -9.143616529565488 0.7496423329729542 -6.3102714648522635 -0.054836122579343644 -2.690704805134584 -74.38673370974267 -9.101827728412275 0.009323781053623586 0.11708678588350209 -2.4694543251010628 6.4216685982576935 -2.452295865812914 -4.509375338675292 -1.673915138920964 -17.37910441148079 2.7668214373993076 0.6555457100777202 -26.656076756292254 1.4898713130533545 0.18271328610475968 -13.983609179722924 5.464302207913491 2.266082525837329 -30.977535564533067 -2.140558928188791 0.3064920867668597 -18.62472731933 0.8607955128513244 0.060364969588084676 -8.02620437765891 -3.009461189377172 -1.3716219999623225 -19.003457596123642 2.696533660346464 0.6208228225956092 -25.92824849211398 1.5704225868850332 0.20333354423127079 -14.75622302089452 -0.9537704213656591 -1.0245423137270633 -24.385568965671748 2.138529168423251 0.38273609843109624 -20.29248068077856 1.4095176527660862 0.163260111561257 -13.215676058246702 17.26965104051729 -9.673940212278444 -17.197844895602653 11.969241003148618 7.226970798701482 17.018021226520254 19.94209505007657 -0.39606645430582393 3.7145990022663242 -1.9217557309263218 0.790194747057008 14.305254652320773 18.50788700804124 1.1915973508745514 68.85755968955426 11.011504635318449 0.013605026588161567 -0.1413411778888084 1.2982672680806735 4.758107377687452 -3.080121519750548 -3.4090115755488903 0.9615085537421281 37.86763560202724 -2.494898108199569 0.5210337546412718 23.589044728661847 -1.31357055618218 0.1399892952699058 12.165918124228337 3.1018163238913665 -3.191925652794571 33.27143847995088 -3.0396885110866063 0.7912341020019069 29.175246567523857 -1.1145032891180664 0.10045625930481275 10.300382842830611 -4.21857136420825 1.458183802650356 30.206158246233596 -3.240293703744145 0.9081971653016923 31.306793973630167 -1.843885703486653 0.2641292599217611 17.164874377434817 -2.5909091995257407 0.5240783313659828 30.9975630363306 -2.682023120542151 0.6064601920783456 25.478238716753552 -0.9348685522195758 0.1018802092242201 8.669619213598386 -31.65113215868545 -6.509415772460472 11.01737056604606 -8.402873396651753 -1.8470555670068527 -0.5575252097849217 -0.251975610775791 -2.6400370067896817 -5.268021386147983 4.404667675343134 3.4715143858465773 2.9341958253081524 -1.7692613862874471 20.74119799462865 -0.8624059524289941 0.28464241485810976 -14.528297583779704 -2.5022600248002065 6.407453352412826e-7 -0.008620916893304475 4.5088258789230144e-8 -6.667852638809582 0.3621576642783366 -5.612511630448693 -8.896829614360959 22.65923937184292 -4.478063851878527 -0.9940551494545127 -12.959013527896287 6.901140238805993 1.2468703894722404e-15 -0.011829409146353997 9.886343618210133e-16
-0.006522044073790312 -0.24392867219447467 0.06885264813899994 -2.0759547024484504 -9.689890494019085 0.8911537851229493 2.004217340270832 3.000944441558965 -0.24144264022061376 0.4634411434967405 3.0629774665687903 -2.333158965231969 0 0 0 -1.2275127485472628 0.8648013257053659 3.5185069350765814 -1.5812513406327675 -2.9424042090708906 -1.3930462812935678 0 0 0 0 0 0 -9.15704593180196 0.7518274873909397 -6.276346013345845 -0.07564487728013884 -2.6763546357079653 -74.40887404208544 -9.1210461177381 0.009360146475351997 0.11731755774784201 -2.323787411978194 6.3960601309954255 -2.448203156146444 -4.487282518953926 -1.683964954072584 -17.516020256958228 2.769464899264952 0.6569027655733473 -26.68352379192151 1.4903336193546348 0.18281902117270407 -13.988057906622362 5.446611805210394 2.2586642807694632 -31.042150336555878 -2.1382586522725693 0.30727351430535604 -18.647263606948194 0.8602504991084811 0.060287669679719144 -8.021061735212237 -2.993465188364815 -1.3790631801862487 -19.132647003012288 2.70107609144553 0.6230206721590955 -25.975138002577985 1.5713063450033609 0.20357669783068108 -14.764726879384757 -0.957944340437416 -1.0342835222421634 -24.49052214720946 2.1409703237617363 0.3836288721456924 -20.31668566256536 1.409461876661 0.16325476211403872 -13.214986897570817 17.273428516455112 -9.695348027148851 -17.21084276485137 12.007079424976423 7.207208166679617 17.045778085842915 19.94273708543586 -0.400938978317874 3.71843496115398 -1.8261941717740644 0.7849414084134801 14.275954937494628 18.433352308056623 1.2033939564482043 68.90357777558908 11.018101980331979 0.013633043538010654 -0.14143030358687717 1.211570691294695 4.885006313467892 -3.0693734427548245 -3.4295397353287997 0.9770560756213399 37.950023448069444 -2.4979220522203347 0.5223570519259016 23.619354905532013 -1.3148980004086654 0.1402803262320461 12.178213791531856 3.1232275304962167 -3.21758133243252 33.34148617460265 -3.04431576351469 0.7938153600261793 29.224049022197963 -1.1154940262220256 0.10064114827467333 10.309540866374194 -4.225649088119725 1.463741007537555 30.265768733320026 -3.245143488440807 0.9111463644515428 31.358928961598757 -1.8457279105624531 0.2646623671986376 17.182519676184015 -2.59994155787586 0.5285163272866535 31.063150780172382 -2.6856351422564977 0.6081497983143617 25.514957964996718 -0.9358607853364691 0.10189214873393179 8.678596322637862 -31.664373089650546 -6.521327716666412 11.003508797406447 -8.407682847705265 -1.8566328656407727 -0.5594267135523949 -0.2524906159772472 -2.6427809624682395 -5.272511988998787 4.409277186374222 3.433065992828119 2.944620268447773 -1.7526512410760922 20.760531684586862 -0.8558865716244496 0.2861086370657758 -14.528403420904153 -2.5148854535378886 5.340653074483793e-7 -0.008605757408332252 4.6466345424388065e-8 -6.643950845189513 0.32565991704156766 -5.584338567009539 -8.921860315795909 22.67452985729852 -4.503480860524091 -0.9896686802164377 -12.959180860557588 6.90027466077075 -0.000003228842117081867 -0.011832626639099238 0.0000013224730081085333
-0.008314794860780239 -0.24408888947963092 0.06807542592287064 -2.0799502735282713 -9.644418250739385 0.8963887953414044 2.0054196966330626 2.941957096087658 -0.26358912840569504 0.46337398585695594 3.08004031223374 -2.3247931304666314 0 0 0 -1.2211528118472996 0.877528239660962 3.5043161405241094 -1.5808582056916929 -2.948476157933645 -1.344088825239149 0 0 0 0 0 0 -9.164984211710143 0.7535206132610478 -6.247973828013395 -0.11467463420983355 -2.6506444953008645 -74.43647722141243 -9.146512801945375 0.009404119987540135 0.11763153935274527 -2.22809549934491 6.441748094132322 -2.415305141172617 -4.45788556717186 -1.6907657555488964 -17.647058784097116 2.7716096275950495 0.6579623150574112 -26.70570597666847 1.4905672441473863 0.18287287588771645 -13.99037876360059 5.4318290011936 2.2515891285187117 -31.08062987307055 -2.1365294991163237 0.3078383470707214 -18.664254263329706 0.8601181256782905 0.06029857531006693 -8.019698069051806 -2.9846214496094956 -1.3861022453045648 -19.23529099574378 2.70429137815359 0.6246042493259165 -26.008330700459684 1.5716184711901524 0.20365429834101373 -14.767683292892983 -0.9687721613758548 -1.0445346549345087 -24.56262231293873 2.1424891776611186 0.38419629751277085 -20.33164511668375 1.4093361120181975 0.16320875153191342 -13.21392159742273 17.280100152236976 -9.713075012651176 -17.222918337340793 12.040155760353294 7.190003915676889 17.07786279687385 19.943642885225035 -0.4064509710749282 3.722495698671647 -1.7349895603450254 0.7776222869904764 14.194540473985205 18.34780968609192 1.202174072010905 69.0024544673183 11.024174223637207 0.013646802300813074 -0.14149113477690378 1.158164954265924 5.005479572666901 -3.0897262557894987 -3.4594475923145587 0.9989454973504059 38.061920823039856 -2.5020692188055107 0.5241713965872692 23.661158308968023 -1.3163352043905792 0.14058409713977982 12.19161917770586 3.150364577737709 -3.2491494944921846 33.42890607850234 -3.0493425115672865 0.796633884940287 29.276697839218752 -1.1166459090646292 0.10085335804457563 10.320377599429204 -4.237663770630698 1.4727329155769906 30.342952764890033 -3.251103264844757 0.9147844356377942 31.42322693594939 -1.84759220135981 0.265119994763731 17.20009530023981 -2.6103842491076072 0.5337398321651695 31.1421919926056 -2.690048665852757 0.6102648752763737 25.55994259979482 -0.936776133166658 0.10186467452136723 8.68680643987802 -31.673756602869044 -6.529467822579026 10.985509897042752 -8.414594517017468 -1.8682721071534023 -0.5598884544570637 -0.25323863448257034 -2.646886010121048 -5.278333520587529 4.420006160095854 3.375188579226682 2.9527898097176286 -1.7505746881288986 20.7671715916281 -0.863978421932101 0.2868856279258551 -14.522085033332242 -2.5224855473925123 -3.1870768541155133e-7 -0.008584162937935066 -0.0000012232824487017904 -6.61351368531519 0.26444571982646375 -5.561290341087584 -8.961941279499475 22.692476100363727 -4.530736911688295 -0.9845962025023846 -12.963152196989276 6.898630198619308 -0.0000048893762313942735 -0.011844568631478435 -0.0000016445244742678006
